<?xml version="1.0" encoding="utf-8"?>
<!-- Generator: Adobe Illustrator 23.1.0, SVG Export Plug-In . SVG Version: 6.00 Build 0)  -->
<svg version="1.1" id="Layer_1" xmlns="http://www.w3.org/2000/svg" xmlns:xlink="http://www.w3.org/1999/xlink" x="0px" y="0px"
	 viewBox="0 0 1080 323" style="enable-background:new 0 0 1080 323;" xml:space="preserve">
<style type="text/css">
	.st0{fill:#E5A02A;}
	.st1{fill:#E6A129;}
	.st2{fill:#E4A02A;}
	.st3{fill:#E6A015;}
	.st4{fill:#996E2E;}
	.st5{fill:#E6A02A;}
	.st6{clip-path:url(#SVGID_2_);fill:#634B28;}
	.st7{fill:#624A29;}
	.st8{fill:#70542A;}
	.st9{fill:#71552D;}
	.st10{fill:none;}
	.st11{fill:#FFFFFF;}
	.st12{font-family: interstate, sans-serif;}
	.st13{font-size:25px;}
	.st14{font-weight: 200;}
</style>
<g>
	<g>
		<path class="st0" d="M1002.5,189.6c4.1-11.9,9.4-23.3,13.7-35.2c-5,6-9.9,12-15,17.9c-3.2,3.8-6.6,7.5-11.2,9.7
			c-3.4,1.7-7,2.6-10.4,0.2c-3.4-2.4-4.1-5.9-3.7-9.7c0.6-5.5,2.2-10.7,4.2-15.8c5.7-14.7,12-29.1,19.4-43.3
			c-6.6,2.4-12.8,5.5-18,10.3c-1.3,1.1-2.3,3.7-4.3,1.9c-1.7-1.5,0.2-3.5,1.1-4.8c3.6-5.2,8.6-9.2,13.5-13.2
			c1.5-1.3,3.1-2.4,4.2-4.8c-3.8,1.4-8.2,2.1-11.3,4.4c-6.6,5-14.1,8.1-21,12.3c-5.1,3.2-10.4,6-13.9,11.1c-1.1,1.6-3.3,3.5-0.1,5.3
			c0.9,1.4,3.7-0.8,4,2c-1.8,0-3.7,0.2-5.4-0.1c-5.2-1.1-7.2-5.6-4.7-10.3c1.7-3.1,4.3-5.5,7-7.7c9.6-7.9,20.5-13.6,32.2-17.6
			c4.8-1.6,9-5.2,14.6-4.3c2.6,0.4,5,0.5,5.4,3.9c0.1,1.1,0.6,2.5,1.8,2.8c6.8,1.7,4.7,6.5,3,10.2c-6.1,14-12,28.1-19.3,41.5
			c-2.9,5.4-4.3,11.1-4.7,17.1c-0.1,1.8-0.4,3.9,1.4,5c2,1.3,3.8,0,5.5-1c2.6-1.5,4.8-3.5,6.7-5.9c16.4-19.8,29.6-41.7,41.1-64.6
			c1.6-3.3,3.3-6.5,5.7-9.3c1-1.2,2.1-2.2,3.7-0.9c1.4,1.1,2.4,2.4,1.4,4.2c-0.9,1.6-1.8,3.2-2.8,4.7c-7.7,11.4-12.7,24.2-19.1,36.2
			c-8.4,15.9-16.3,32.1-23.9,48.5C1002.6,190.8,1002.3,190.6,1002.5,189.6z"/>
		<path class="st0" d="M918.8,142.8c0.6-1.3,1.3-2.7,1.9-4c1.2-0.9,1.9-2.6,3.1-3.1c3-1.2-1.3-1.9,0-2.9
			c5.9-10.3,11.9-20.6,18.2-31.5c-5.6-0.6-10.2,0.3-14.8,1.2c-1.4,0.3-2.3,1.1-1.2,2.3c3.4,3.8,0.4,7.1-1.2,9.7
			c-8.6,14-17.4,27.7-26.5,41.4c-2.4,3.6-4.4,7.4-6.2,11.3c-3.5,7.8-9.9,13.6-15.2,21.8c1.3-10.9,5.9-19.3,9.2-28
			c0.6-1.5,1.6-2.9,2.2-4.4c4.2-11.1,10.6-20.8,17.8-30.1c3.9-5.1,7.7-10.3,9.9-16.4c1.2-3.1,1-4.8-3.1-5.6c-3-0.6-6.5-1.3-8.3-4.7
			c-1.3-2.4-0.3-2.9,1.8-3c29.8-1.7,59.6-4.4,89.3-7.5c0.7-0.1,1.3-0.1,2,0.3c-16.7,7.2-35,6.1-53,9.8c5.1,4.8,4,9.4,0.5,14.5
			c-4.3,6.1-7.9,12.7-11.8,19.1c-5.1,8.3-10.7,16.3-15.1,25c-4.2,8.2-8.5,16.4-13,24.5c-0.7,1.3-1.2,2.8-3.6,3.7
			c4.1-14.4,10.3-27.5,16.1-40.6C919.9,145.5,918.1,143.6,918.8,142.8z"/>
		<path class="st0" d="M823,156.9c-5,6-10,12-15.1,17.9c-2.8,3.3-6.2,6.1-10.2,7.8c-7.2,2.9-12.8-1-12.8-8.7c0-4.2,1.1-8.2,2.5-12.1
			c5.7-16.5,13-32.3,21.2-47.7c1.2-2.2,2.2-4.5,3.2-6.7c0.6-1.3,0.9-3,3-2.5c2,0.5,3.2,1.7,3.2,3.8c0,2.2-0.5,4.3-1.4,6.3
			c-6.3,13.7-12,27.7-19.2,41c-3.1,5.8-4.8,12-4.8,18.6c0,4.4,1.7,5.3,5.7,3.5c3.4-1.6,6-4.1,8.3-7c15.8-19.2,28.6-40.3,39.8-62.5
			c1.8-3.6,3.5-7.2,6-10.3c1.2-1.4,2.2-3.1,4.4-1.4c1.9,1.5,2.1,3.1,0.8,5.2c-2.3,3.6-4.4,7.4-6.6,11.1c-7,11.8-12.3,24.4-18.6,36.5
			c-0.1,3.1-2.1,5.4-3.1,8.2c-0.8,1.1-1.4,2.3-1.8,3.6c-1.7,2.7-2.2,6.2-5,8.3c-3,5.9-6.1,11.9-9.1,17.8c-0.9,0.2-1.4,0.1-1-1
			c3.7-9.3,7.4-18.5,11.1-27.7c0.6-0.9,0.6-1.9,0.2-2.9C823.8,156.3,823.4,156.6,823,156.9z"/>
		<path class="st1" d="M751.6,243.7c-1.2-2.7-2.1-4.7-5.8-2.9c-2.7,1.3-5.9,1.1-9.1-0.2c-7.1-2.9-14.7-1.8-21.9-1
			c-11.1,1.3-22.1,1-33.3,0.2c-7.8-0.6-15.6-1.9-23.5-0.3c-4.1,0.8-8.6-0.1-12.9-0.5c-10.3-1-20.5-0.8-30.8,0.3
			c-7.5,0.8-15.3,0.8-22.8-0.1c-7.9-0.9-15.5,1.1-23.4,0.8c-4.2-0.2-8.5-1.7-12.2-1.2c-8.8,1.2-17.6-0.5-26.4,0.1
			c-8.9,0.6-18,0.9-27.1-0.1c-6.3-0.8-12.8-0.7-19.1-1.2c-3.7-0.3-6.3-1.9-5.2-7.4c1.6,3.8,3.3,4.6,6.7,3.1c2.7-1.2,5.9-0.6,9,0.6
			c6.8,2.6,14,1.6,21,0.9c10.3-1.1,20.5-1.7,30.8-0.3c14.6,1.9,29.3-1,43.9,1.1c13.3,1.9,26.4-1.6,39.7-1.3c2.7,0.1,5.2,0.6,7.8,0.9
			c9.2,0.8,18.2-1.4,27.3-0.9c2.2,0.1,4.4,0.7,6.4,0.6c7.9-0.6,15.6,2,23.5,0.5c5.5-1.1,11.1,0.1,16.7-0.1c12-0.6,24,0.9,35.9,1.3
			C751,236.8,752.5,239.3,751.6,243.7z"/>
		<path class="st1" d="M1040.4,240.7c-0.5-0.2-1-0.6-1.4-0.4c-8.2,2.7-15.9-2-23.8-1.6c-8.4,0.5-16.8,1.2-25.2,2
			c-6.4,0.6-12.5-1.2-18.8-1.1c-7.7,0.2-15.3-1.3-23.1-0.2c-6.5,0.9-13.3-0.1-19.8-0.9c-12-1.5-23.8,1.6-35.7,1.3
			c-3.6-0.1-7.3-0.1-10.8-0.6c-8.5-1.1-16.9,1.4-25.3,0.8c-2.5-0.2-5-0.1-7.4-0.7c-2.5-0.7-5.1-2-7.4,0.6c-0.3,0.3-1.3,0.2-1.8-0.1
			c-7.1-3.1-14.4,0.1-21.5-0.6c-8.6-0.8-17.1,0.7-25.7-0.5c-6.3-0.9-12.8-0.8-19.1-1.2c-4.2-0.3-5.5-1.8-5.5-7
			c1.8,3.2,3.6,4.5,6.8,2.7c4.8-2.5,9.4,0.8,13.9,1.6c5.6,1,10.9,0.3,16.2-0.3c11.2-1.3,22.2-0.9,33.3-0.2c8,0.5,15.9,1.6,24,0.3
			c6-0.9,12.3-0.1,18.4,0.9c12.5,2,24.8-1.6,37.2-1.2c3.4,0.1,7,0.4,10.3,0.7c8.2,0.9,16.2-1.4,24.4-0.9c3.3,0.2,6.7,1.1,9.8,0.8
			c7.2-0.7,14.3,1.9,21.5,0.4c5.9-1.3,11.8,0.1,17.6-0.2c11.7-0.6,23.3,0.9,35,1.3c2.5,0.1,4,1.1,5.4,2.8
			C1042,240.5,1041.4,240.9,1040.4,240.7z"/>
		<path class="st0" d="M752.7,183.5c1.4-7.9,5.1-14.9,8-22.3c0.4-1.1,1.2-2,1.6-3.1c4.3-11.2,10.6-21.1,17.6-30.8
			c4.8-6.6,10.9-12.6,11.5-21.8c0.2-3.6,4.5-3.4,7-2.3c2,0.9,4.4,2.6,3.3,6c-2.6,7.8-7.4,14.5-11.9,21.1
			c-8.9,13.4-18.1,26.6-25.4,40.9c-2.8,5.5-7.4,9.3-10.7,14.3C751.8,185.6,752.5,184.5,752.7,183.5z"/>
		<path class="st0" d="M695.9,121.9c1.1-0.4,2.2-0.9,3.3-1.1c2.5-0.3,4.4,1,5.2,3.1c0.7,2-1.4,2.9-2.8,3.4c-4.7,1.9-9.3,4-14.2,5.5
			c-8.5,2.6-14.5,9-19.3,16.3c-0.7,1.1-0.9,2.8,0,3.8c1.2,1.4,2.5-0.1,3.4-0.7c4.6-2.9,9.7-5.1,13.6-9.1c1.4-1.5,3.2-2,4.9-0.6
			c2.1,1.7,0.4,3.4-0.6,4.8c-2.5,3.6-6.5,5.8-9,9.6c-5,7.2-10.8,13.8-15.1,21.5c1.6-9.1,6.7-16.5,11.7-24.3
			c-2.5-0.3-3.8,1.2-5.3,2.1c-2.5,1.5-4.7,1.4-6.8-0.5c-2.4-2-2.5-4.6-1.3-7.2c4.3-9.5,11.6-16,20.7-20.6c3-1.5,6.2-1.9,5.5-6.8
			c-0.5-3.5,2.8-5.7,5.8-7.5c2.9-1.7,5.6-3.6,8.7,0c1.4,1.6,2.6-0.4,3.8-1.2c2.1-1.4,4.2-3,6.9-5c-1.1,2.8-9.4,10.6-10.1,10
			c-5.1-4.7-7.4,1-10.8,2.7c-0.8-0.3-1.5-0.2-1.1,0.8C693.4,122.1,694.4,122.9,695.9,121.9z"/>
		<path class="st2" d="M976.8,132.8c4.7,2,3.5,5.5,2,8.7c-2.8,5.8-8.3,9.1-13,13.3c-10.8,9.7-23.5,17.1-34.7,26.3
			c-2,1.7-4.2,3.2-6.3,4.8c-1,0.2-1.3-0.2-1-1.1c14.5-13.6,29-27.1,43.5-40.7c1.9-1.8,3.9-3.6,5.6-5.6c1-1.2,3-2.6,0.9-4.6
			C974.1,131.3,975.6,132.6,976.8,132.8z"/>
		<path class="st0" d="M370.3,132.7c5.2,1.6,4.3,5.2,2.7,8.7c-2.8,5.8-8.3,9.1-12.9,13.3c-10.6,9.4-22.8,16.7-33.9,25.6
			c-2.3,1.9-4.7,3.6-7.1,5.4c-1,0.4-1.3-0.1-1.1-1.1c14.2-13.3,28.4-26.6,42.5-39.8c2.2-2.1,4.4-4.1,6.4-6.3c1.1-1.2,3-2.5,1.2-4.6
			C368.1,131.8,369.3,132.4,370.3,132.7z"/>
		<path class="st3" d="M548.2,121.1c-0.3-0.3-0.7-0.7-1-1.1c2.1-4.9,5.5-8.9,8.8-13.1c0.8,0,1.6,0.2,2,1
			C553.2,111.2,551.2,116.5,548.2,121.1z"/>
		<path class="st3" d="M953.7,137.8c-1.3-0.7-2.7-1.3-4-2c5.1,0.5,9.9-1.6,14.9-2c1-0.5,1.1,0,1,0.9
			C961.6,135.6,957.9,137.6,953.7,137.8z"/>
		<path class="st3" d="M370.3,132.7c-0.7,0.4-1.4,0.8-2.1,1.1c-4.2-0.3-8.1,1-12.1,1.9c-0.4-0.3-0.7-0.7-1-1
			C360,133.2,364.9,130.8,370.3,132.7z"/>
		<path class="st3" d="M965.6,134.6c-0.3-0.3-0.7-0.6-1-0.9c4-1.3,7.9-3.1,12.2-1c-1,0.3-2.2-0.2-3,0.9
			C971.1,134,968.3,134.3,965.6,134.6z"/>
		<path class="st3" d="M559,104c0.7-2.3,2.5-3.8,4.4-5.5c0.8,3.9-1.9,4.6-4.5,5.4L559,104z"/>
		<path class="st3" d="M708.9,151.8c-1.5,0.5-1.1,2.9-3,3c0.6-3.3,2.8-5.7,4.9-8.1c0.4,0.4,0.8,0.8,1.2,1.2
			C712,150,710.7,151,708.9,151.8z"/>
		<path class="st3" d="M705.9,154.7c0.2,2.9-1.8,4.8-2.8,7.2c-0.6,0.3-1.1,0.2-1.5-0.2C702.7,159.2,703.5,156.4,705.9,154.7z"/>
		<path class="st3" d="M558,107.9c-0.8-0.1-1.6-0.2-2-1c0.8-1.2,1.2-2.8,3-2.9l-0.1-0.1C561.2,105.8,559.2,106.8,558,107.9z"/>
		<path class="st3" d="M318,184.6c0.4,0.4,0.7,0.7,1.1,1.1c-1.7,1.5-3.4,2.9-5.1,4.4C314.6,187.5,316.1,185.9,318,184.6z"/>
		<path class="st3" d="M428.2,202.5c0.4-0.7,0.7-1.4,1.1-2.1c1,2.5,1.9,5,2.9,7.5C429.9,206.7,428.9,204.6,428.2,202.5z"/>
		<path class="st4" d="M1040.4,240.7c0.4-0.4,0.9-0.9,1.3-1.4"/>
		<path class="st3" d="M923.8,184.7c0.3,0.4,0.7,0.7,1,1.1c-0.8,1.4-2.1,1.9-3.9,2.9C921.2,186.4,922.4,185.5,923.8,184.7z"/>
		<path class="st3" d="M812.8,186.6c0.3,0.3,0.6,0.7,1,1c-0.4,1.7-1.2,3.2-2.6,4.9C810.8,189.9,811.7,188.2,812.8,186.6z"/>
		<path class="st3" d="M701.5,161.7c0.5,0.1,1,0.1,1.5,0.2c-1.1,1.6-2.1,3.2-3.2,4.8C699.8,164.9,700.4,163.2,701.5,161.7z"/>
		<path class="st3" d="M1002.5,189.6c0.3,0.3,0.7,0.6,1,0.8c-0.4,1-0.9,2-1.6,3.7C1001.1,191.8,1001.5,190.6,1002.5,189.6z"/>
		<path class="st3" d="M752.7,183.5c0.3,0.7,0.7,1.4,1,2.1c-0.3,0.9-0.4,1.9-1.6,2.3C751.2,186.3,752,184.9,752.7,183.5z"/>
		<path class="st0" d="M533.9,163.7c0.1,1.1,0.6,2.2-0.2,3.4C532,165.7,533.2,164.7,533.9,163.7C534,163.7,533.9,163.7,533.9,163.7z
			"/>
		<path class="st5" d="M379.1,141.8c0.7-1.4,1.3-2.7,2-4.1c1.1-0.5,1.6-1.7,2.6-2.2c2.7-1.2,2.2-2.9,1.2-4.8
			c2.3-3.8,4.5-7.8,6.9-11.5c1-1.6,0.5-2.6-0.4-3.9c-1.3-2.1-2.3-0.3-3.2,0.2c-4.9,2.4-9.8,5-13.4,9.3c-1,1.2-2.1,1.9-3.4,0.9
			c-1.3-1-0.2-2.1,0.2-3.1c1.6-4.2,5.2-6.8,8.3-9.8c3.5-3.3,7.3-6.2,10.7-10.2c-4,1.5-8.5,2.2-11.8,4.7c-5.9,4.5-12.6,7.3-18.8,11.1
			c-5.1,3.1-10.5,5.9-14.5,10.4c-1.5,1.6-3.9,3.7-2.7,5.9c1.2,2.3,4.1,1.4,6.4,1.1c2-0.2,3.9-0.6,5.9-1c1-0.4,1.3,0.1,1,1
			c-4,1.2-7.9,2.8-12.2,2.2c-6.8-0.8-9.3-6.1-5.4-11.8c3.4-4.8,8.2-8.2,13-11.5c5.8-4,12.1-7,18.3-9.9c0.1-1.8-1.3-1.3-2.1-1.7
			c-2-1.2-4.6-2.9-3.9-5.2c0.6-1.9,3.4-0.4,5.3-0.3c8.4,0.5,16.5-2.1,24.7-2.8c6.6-0.6,12.5-1.9,18.4-6c6.9-4.9,15.6-6.4,24.3-5.6
			c3,0.3,6.2,0.7,8.4,2.7c3.6,3.3,7.3,5.6,12.6,3.2c-4.8,3.7-4.8,3.7-3.3,9.8c2.8,11-3,25.6-12.6,31.7c-7.5,4.8-14.8,10.2-23.3,13.2
			c-2.2,0.8-3.1,1.9-2.6,4.5c2.3,10.3,3.4,20.8,6,31.1c0.9,3.5,2.4,4.4,5.9,3.3c4.3-1.3,7.6-3.2,9.6-7.6c3.4-7.2,7.4-14.1,11.3-21.1
			c1.3-2.3,2.3-4.1-1.1-5.4c-1.2-0.4-2.5-1.5-2.1-3c0.5-1.8,2.3-1,3.4-0.9c3.6,0.4,5.7-1.1,7.4-4.3c2.9-5.4,6.5-10.4,9.7-15.6
			c1.3-2,1.8-3.5-1.5-4.1c-1.6-0.3-3.2-1-3.9-2.7c-0.7-1.7-0.9-2.6,1.6-2.7c13.8-0.9,27.5-2.1,41.3-3.2c0.8-0.1,1.7-0.2,2.5-0.1
			c1.4,0.1,3.3-0.7,3.5,1.6c0.1,1.6-1.4,2.2-2.7,2.4c-5.9,1.1-11.7,2.5-17.6,3c-4.4,0.4-8.3,2.2-12.5,3c-0.5,0.1-1.3,0.6-1.5,1.1
			c-2.4,6.9-6.9,12.8-10.1,19.9c7.4-0.4,14.1-2.4,21.6-2.2c-2,2.6-4.1,4-7.1,4.7c-5.1,1.2-10.9,0.8-15,5.3c-0.6,0.7-2.2,0.7-3.3,0.7
			c-5,0.1-7.7,3.1-8.3,7.6c-0.4,2.6-3,2.8-3.9,4.8c-1.8,4-3.9,7.8-6.6,13c7.1-2.4,13.3-4,19.6-4.4c3-0.2,6.1-0.9,8.9-0.3
			c5,1.2,7.5-1.2,10.3-4.7c9.6-12,16.2-25.9,25.4-38.1c3.3-4.3,8.3-8.1,6.5-14.8c-0.2-0.7,0.2-1.3,1-1.3c1.2,0,2.3,0.5,2.9,1.6
			c1.7,3.3,2.9,6.6,2.8,10.4c-0.3,15.6-2,31.1-3.5,46.6c-0.1,1.1-0.2,2.2,0.3,3.4c10.5-18.2,19.3-37.3,30.4-55.1
			c0.9-0.2,1.5,0,1,1.1c-1.5,7.2-4.9,13.4-8.3,19.8c-4.9,9.4-9.8,18.9-13.3,29.1c-2.5,7.3-6.4,14.1-11.8,20
			c-3.1-2.2-1.8-5.3-1.8-8.2c0-11.3-0.2-22.6-0.2-33.8c0-6.1,0-12.1,0-19.6c-3.6,6.5-6.8,11.8-9.7,17.2c-6.4,11.8-13,23.5-22.9,32.9
			c-0.6,0.6-1.1,1.3-1.8,1.7c-1.7,1-3.4,0.8-5.2-0.2c-2.5-1.5,0.7-2.8-0.2-4.8c-16,1.8-31.5,4.6-43.7,17.5c0.1-2.6,0-5.3-3.7-3.6
			c1.2,3.8,2.5,7.5,3.7,11.3c0.2,1,0.9,2.2-1.1,2.1c-8.5-16.1-16.9-32.3-19.1-51.9c-9,11.3-17.5,20.4-24.2,32
			c-1.3-2.9-0.6-4.3,0-5.7c9.4-22,21-42.9,32.5-63.9c1.5-2.8,2.8-5.7,4.3-8.4c0.6-1.2,0.8-3.4,2.9-2.7c1.7,0.6,3.2,2.1,3.2,4.1
			c0,2.5-0.7,4.9-1.6,7.2c-3.9,10.2-8.3,20.1-13.2,30.3c2.6-1.4,5.6-2.5,7.9-4.4c11.4-9.7,24.7-18,26.7-34.9c0.2-2,0.2-3.9-0.1-5.9
			c-0.5-3.7-2.3-4.5-5.8-4c-10.2,1.5-20.4,2.6-30.6,4c-3.2,0.4-7.3,0.3-3.6,5.6c1.4,2,1.1,4.7-0.4,6.6c-1.8,2.1-2.5,4.7-4,6.8
			c-7.3,9.9-12.5,21.1-19.5,31.3c-5,7.3-8.5,15.6-12.7,23.4c-2.6,4.9-5,10-9,14.1c3.4-14.1,9.8-27,15.3-40.2
			C378.4,144.8,379.9,143.8,379.1,141.8z M428.3,92.2c3.7-0.2,7.4,0,12-1.7c-6.2-1.4-11.1-0.2-16,0.8
			C425.1,93.6,426.9,92.2,428.3,92.2z M421.7,93.1c2.4-0.1,4.5,0.3,6.6-0.8c-1.3-0.5-2.9,0.2-4-0.9
			C423.4,91.4,422.4,91.4,421.7,93.1z"/>
		<g>
			<g>
				<defs>
					<path id="SVGID_1_" d="M538.5,179.8c1,0.7,1.5,1.6,1.5,2.9c-1.3,0-1.3,3.2-2.8,1.4C536.2,182.9,535.9,180.5,538.5,179.8z"/>
				</defs>
				<clipPath id="SVGID_2_">
					<use xlink:href="#SVGID_1_"  style="overflow:visible;"/>
				</clipPath>
				<path class="st6" d="M542.9,161.4c0.9-4.2,2.5-7.8,6.3-10C547.1,154.8,545,158.1,542.9,161.4z"/>
			</g>
		</g>
		<g>
			<path class="st7" d="M593.4,147.4c1.7-0.8,2.2-1.7,2.1-3.6C593.8,144.7,593.2,145.6,593.4,147.4z"/>
			<g>
				<path class="st7" d="M534,163.7C534,163.7,534,163.7,534,163.7C534,163.7,534,163.7,534,163.7L534,163.7z"/>
				<path class="st3" d="M674.3,102.7c-0.5-1.2,1.1-3.3-1.2-3.6c-2.1-0.3-2.5,1.9-3.3,3.2c-5.7,9.3-11.3,18.7-17,28.1
					c-0.8,1.4-1.4,3.4-3.4,3.3c-6.8-0.2-13.5,1-20.5,0.2c1.2-3,2.9-5.1,4.3-7.5c3.8-6.2,8.6-11.8,10.1-19.2c0.4-2.2,0.8-4.6-1.7-5.6
					c-2.5-1-3.4,1.4-4.3,3.1c-5.2,8.9-10.2,17.8-15.4,26.7c-1.8,3.2-10.6,4.3-13,1.9c-1-1,0.2-1.3,0.4-1.9c1.5-7,7-11.8,10.4-17.8
					c3-5.3,4.2-9.5-0.8-14.2c18-3.8,36.4-2.6,53.1-9.7c-14.8,1-29.5,2.6-44.3,3.5c-8.4,0.5-16.8,2-25.3,0.5
					c-2.5-0.4-4.9,0.6-7.1,1.8c-3.8,2.2-7.9,2.3-12.1,1.8c-1.7-0.2-4-1.5-4.8,0.5c-0.7,1.7,1.3,3.2,2.7,4.4c0.5,0.4,1,0.8,1.6,1.2
					c-17.2,12.9-30.1,29.5-41.8,47.1c-2.7,4-6,7.9-6.7,13.1c2.2,0.7,3.2,1.4,1.6,4.1c-3.1,5.3-4.9,11.1-3.8,17.4
					c0.3,1.9,1,4.5,2.7,4.2c3.6-0.6,7.1,0.1,10.8-1.2c9-3.2,14.6-10.2,20.4-16.9c4.7-5.4,10.6-10.2,12.4-17.6
					c1.8-7.2,7-8.7,13.8-8.8c-5.6,13.7-12.1,26.7-15.6,40.9c3.4-2.5,4.8-6.4,6.9-9.9c2.1-3.6,3.9-7.3,5.8-11
					c1.9-3.6,3.6-7.4,5.7-10.9c2-3.6,3.6-8.1,6.8-10.1c3.6-2.3,1.7-6.7,5.5-8.4c1.6,1.9,3.6,4.2,6.3,4.9c3.2,0.8,2.8,2.3,1.6,4.6
					c-4.5,9-9.3,18-12.1,27.8c-0.8,2.6-1.5,5.2-0.6,8.5c2.9-3.3,6.3-5.9,6.7-9.6c1.2-9.2,6.6-16.4,10.2-24.5c1.9-4.2,5.2-7.8,10-8.8
					c6-1.3,12-2.4,19-3.7c-11.5,20-20.9,39.7-27.6,60.8c0.8-0.2,1.2-0.8,1.5-1.4c4.7-9.7,10.4-18.9,15.9-28.1
					c9.6-16,18.5-32.5,30.8-46.8C672.3,114.8,677.2,109.6,674.3,102.7z M598,133c1.3,1.2,2.6-1.5,3.5,0.5c-1.9,3.3-6.4,4.3-8.1,8.2
					c-0.7,1.6-2.7,1-4.1,1c-8.8,0.1-17.7,0.1-26.5,0.2c-1.2,0-3.5-1.1-3.5,1.2c0,1.5,1.9,2.2,3.4,2.3c5,0.3,10.1,1.6,14.9-1.6
					c-5.4,14.1-13.5,25.7-25.4,34.5c-2.7,2-5.1,4.3-8,5.8c-1.9,1-3.3-0.7-4.1-2.6c-0.9-0.8-1.7-1.6-1.5-2.9
					c-2.2-5.4,1.1-9.5,3.5-13.6c4.7-8.1,10.6-15.3,15-23.6c2.5-4.9,6.6-9.1,10.6-13c5.5-5.3,9.4-11.9,15.4-16.7
					c2-1.9,3.4-4.6,6.7-5.3c-1.9,2.1-3.8,4.2-5.7,6.3c-4.9,6.5-10.2,12.7-14.2,19.7c-0.3,1-0.2,1.7,1.1,1.1
					c4.6-8.5,13.5-13.3,18.5-21.9c5-8.5,14.4-13.4,26.1-11.4C610.1,112.3,604.3,122.8,598,133z"/>
				<path class="st3" d="M583,112.9c0.3,0.3,0.7,0.7,1,1C584.3,113,584,112.6,583,112.9z"/>
			</g>
		</g>
		<path class="st3" d="M571,134.8c-0.5,1.2-1.4,2-2.6,2.6c-0.6-1.9,0.6-2.8,1.5-3.8C570.2,134.1,570.6,134.4,571,134.8z"/>
		<path class="st3" d="M607.8,171.3c-0.4,0.3-0.7,0.5-1.1,0.8c-0.1-0.3-0.4-0.7-0.3-0.8c0.3-0.4,0.7-0.6,1-0.9
			C607.5,170.6,607.6,170.9,607.8,171.3z"/>
		<path class="st3" d="M828.9,157.8c0.4-0.1,0.7-0.2,1.1-0.3c-0.9,1.2,1.8,5.9-3.1,3.3C826.8,159.2,827,157.9,828.9,157.8z"/>
		<g>
			<g>
				<path class="st8" d="M705.9,154.8C705.9,154.8,705.9,154.8,705.9,154.8C705.9,154.7,705.9,154.7,705.9,154.8L705.9,154.8z"/>
				<path class="st3" d="M701.8,179.4c-1.4-9.9,1.7-18.7,7-26.9c0.3-0.3,0.6-0.6,0.9-1c-0.1-0.1-0.3-0.2-0.5-0.2
					c-2.2,0.1-2,2.4-3.2,3.4c-1.2,2.2-2.5,4.3-3.3,6.6c-1.2,1.6-1.8,3.6-2.7,5.4l0-0.1c-1.6,4.2-0.4,8.6-1,12.9
					c1.1,2.3,1.9,5,5.3,4.9l0,0C702.1,183.4,702.1,181.4,701.8,179.4z"/>
				<path class="st3" d="M766.7,109.1c3.5-0.9,7-1.7,10.4-2.6c-14-0.5-28,0.2-41.9-1.5c-0.7-0.1-1.7-0.4-2.1,0.6
					c-0.3,0.9,0.3,1.6,0.8,2.2c2.8,3.5,6.7,3.1,10.5,2.9c4.4-0.3,8.7-0.6,13.8-1c-12.5,24.1-25.5,46.8-40.3,68.4
					c-1.1,1.6-2.6,3.1-4.2,4.3c-2.8,2.2-5.5,1.1-6.1-2.5c-0.4-2.1-0.4-4.3,0.2-6.4c1.5-5,3.3-9.9,6.6-13.9c5.8-7.1,6-16.4,10-24.4
					c-6.3,1.9-10.2,6.4-13.7,11.4c-0.4,0.7,0,1.1,0.6,1.5c0,0.4,1.8-0.5,0.5,0.7c-0.8,0.8-1.5,1.8-2.3,2.6c0.5,0.3,0.7,0.7,0.4,1.4
					c-6.2,9.8-9,20.1-5.8,31.6l0,0c7.7,2.8,19.5,1.7,24.6-6.4c2.8-4.4,5.1-8.9,7.2-13.7c2.6-5.9,6.8-11.2,10.5-16.7
					c5.3-7.8,10.6-15.6,14.8-24.1c1.8-3.7,4.8-7.3,3-12.1C763.6,109.8,765.5,109.4,766.7,109.1z M714.4,150.6
					c-0.8,3.6-2.9,6.5-5.6,10.6C709.5,156.1,711.9,153.3,714.4,150.6z"/>
			</g>
		</g>
		<path class="st0" d="M835.7,147.7c3.4-5.6,7.9-10.1,14.3-12.6c-3.7,7.8-3.9,16.8-9.5,23.8c-3.4,4.3-5.6,9.4-7.1,14.7
			c-0.7,2.3-0.7,4.7-0.1,6.9c0.9,3,3.1,3.9,5.7,2c1.6-1.1,3.1-2.6,4.2-4.2c14.9-21.7,27.9-44.6,40.5-68.7c-5,0.3-9.4,0.7-13.8,1
			c-3.8,0.2-7.7,0.7-10.5-2.9c-0.5-0.7-1.1-1.3-0.8-2.2c0.4-1.1,1.4-0.7,2.1-0.6c13.9,1.8,27.9,0.9,41.9,1.6
			c-3.5,0.8-6.9,1.6-10.3,2.5c-1.2,0.3-3.1,0.7-2.5,2.4c1.7,4.8-1.2,8.4-3,12.2c-4.2,8.5-9.5,16.3-14.8,24.1
			c-3.8,5.5-8,11.1-10.6,17c-2.1,4.8-4.5,9.3-7.3,13.7c-4.9,7.9-17.2,8.9-24.2,6.2c-1.9-0.8-2.8-2.3-2.8-4.3
			c0-9.9,0.9-19.5,7.3-27.8c0.8-1,1.7-2,2.5-3c1.1-1.4-0.6-0.1-0.6-0.5C835.7,148.8,835.3,148.4,835.7,147.7z M833.9,161.3
			c3.4-3.9,5-7.2,6.3-10.8C837.3,153.1,835.3,156.2,833.9,161.3z"/>
		<path class="st3" d="M832.8,153c0-0.7,0-1.4,0-2.1c1-1.1,1.9-2.2,2.9-3.3c0.3,0.3,0.7,0.7,1,1c0.9,2-0.8,2.3-1.9,3
			C834.1,152.1,833.5,152.6,832.8,153z M834.8,151.7c0.4,0.4,0.7,0.8,1.1,1.1c1.7-2,3.4-3.9,4.5-8c-1.9,2-2.8,2.9-3.6,3.8"/>
		<path class="st9" d="M832.3,164.1"/>
	</g>
</g>
<rect x="730.1" y="47" class="st10" width="310.9" height="31"/>
<text transform="matrix(1 0 0 1 730.1299 65.2246)" class="st11 st12 st13 st14">Your Resource for</text>
</svg>
